HIERARCHY
ROOT Root
{
  OFFSET 0.0 0.0 0.0
  CHANNELS 6 Xposition Yposition Zposition Zrotation Yrotation Xrotation
  JOINT Hips
  {
    OFFSET 0.0 100.0 0.0
    CHANNELS 6 Xposition Yposition Zposition Zrotation Yrotation Xrotation
    JOINT Spine1
    {
      OFFSET -0.013727 5.003763 -0.053727
      CHANNELS 3 Zrotation Yrotation Xrotation
      JOINT Spine2
      {
        OFFSET -0.0 7.125301 -0.029825
        CHANNELS 3 Zrotation Yrotation Xrotation
        JOINT Chest
        {
          OFFSET -1e-06 7.550063 -0.815971
          CHANNELS 3 Zrotation Yrotation Xrotation
          JOINT Neck1
          {
            OFFSET -0.181677 26.311295 -0.553348
            CHANNELS 3 Zrotation Yrotation Xrotation
            JOINT Neck2
            {
              OFFSET -3e-06 7.709397 2.302585
              CHANNELS 3 Zrotation Yrotation Xrotation
              JOINT Head
              {
                OFFSET -5e-06 6.128916 1.953709
                CHANNELS 3 Zrotation Yrotation Xrotation
                JOINT HeadEnd
                {
                  OFFSET 0.003598 16.065403 -1.835379
                  CHANNELS 3 Zrotation Yrotation Xrotation
                }
                JOINT Jaw
                {
                  OFFSET 0.002637 0.475592 3.094941
                  CHANNELS 3 Zrotation Yrotation Xrotation
                }
                JOINT LeftEye
                {
                  OFFSET 3.206381 5.380205 7.586883
                  CHANNELS 3 Zrotation Yrotation Xrotation
                }
                JOINT RightEye
                {
                  OFFSET -3.22244 5.361869 7.558234
                  CHANNELS 3 Zrotation Yrotation Xrotation
                }
              }
            }
          }
          JOINT LeftShoulder
          {
            OFFSET 1.621652 23.237164 5.113413
            CHANNELS 3 Zrotation Yrotation Xrotation
            JOINT LeftArm
            {
              OFFSET 14.919846 2e-06 -5.502326
              CHANNELS 3 Zrotation Yrotation Xrotation
              JOINT LeftForeArm
              {
                OFFSET 28.739307 0.0 -0.002588
                CHANNELS 3 Zrotation Yrotation Xrotation
                JOINT LeftHand
                {
                  OFFSET 27.093981 -1e-06 0.002609
                  CHANNELS 3 Zrotation Yrotation Xrotation
                  JOINT LeftHandThumb1
                  {
                    OFFSET 2.276482 -1.392045 3.191413
                    CHANNELS 3 Zrotation Yrotation Xrotation
                    JOINT LeftHandThumb2
                    {
                      OFFSET 4.012836 -1.828127 1.641654
                      CHANNELS 3 Zrotation Yrotation Xrotation
                      JOINT LeftHandThumb3
                      {
                        OFFSET 2.798515 0.0 -3e-06
                        CHANNELS 3 Zrotation Yrotation Xrotation
                        JOINT LeftHandThumbEnd
                        {
                          OFFSET 3.180793 -4e-06 4e-06
                          CHANNELS 3 Zrotation Yrotation Xrotation
                        }
                      }
                    }
                  }
                  JOINT LeftHandIndex1
                  {
                    OFFSET 3.247555 -0.531998 2.296169
                    CHANNELS 3 Zrotation Yrotation Xrotation
                    JOINT LeftHandIndex2
                    {
                      OFFSET 6.364578 0.01206 0.1786
                      CHANNELS 3 Zrotation Yrotation Xrotation
                      JOINT LeftHandIndex3
                      {
                        OFFSET 3.662364 0.0 0.0
                        CHANNELS 3 Zrotation Yrotation Xrotation
                        JOINT LeftHandIndex4
                        {
                          OFFSET 2.329242 4e-06 4e-06
                          CHANNELS 3 Zrotation Yrotation Xrotation
                          JOINT LeftHandIndexEnd
                          {
                            OFFSET 2.759615 -0.180537 -0.113024
                            CHANNELS 3 Zrotation Yrotation Xrotation
                          }
                        }
                      }
                    }
                  }
                  JOINT LeftHandMiddle1
                  {
                    OFFSET 3.163495 0.240981 1.000332
                    CHANNELS 3 Zrotation Yrotation Xrotation
                    JOINT LeftHandMiddle2
                    {
                      OFFSET 6.19078 -0.259278 -1.002548
                      CHANNELS 3 Zrotation Yrotation Xrotation
                      JOINT LeftHandMiddle3
                      {
                        OFFSET 4.35652 -4e-06 -1e-06
                        CHANNELS 3 Zrotation Yrotation Xrotation
                        JOINT LeftHandMiddle4
                        {
                          OFFSET 2.996877 -8e-06 0.0
                          CHANNELS 3 Zrotation Yrotation Xrotation
                          JOINT LeftHandMiddleEnd
                          {
                            OFFSET 2.304287 -0.294569 -0.031741
                            CHANNELS 3 Zrotation Yrotation Xrotation
                          }
                        }
                      }
                    }
                  }
                  JOINT LeftHandRing1
                  {
                    OFFSET 2.882643 -0.053652 -0.322543
                    CHANNELS 3 Zrotation Yrotation Xrotation
                    JOINT LeftHandRing2
                    {
                      OFFSET 5.854541 -0.486202 -1.373841
                      CHANNELS 3 Zrotation Yrotation Xrotation
                      JOINT LeftHandRing3
                      {
                        OFFSET 4.350578 0.0 3e-06
                        CHANNELS 3 Zrotation Yrotation Xrotation
                        JOINT LeftHandRing4
                        {
                          OFFSET 2.651321 7e-06 2e-06
                          CHANNELS 3 Zrotation Yrotation Xrotation
                          JOINT LeftHandRingEnd
                          {
                            OFFSET 1.936105 0.077687 -7.1e-05
                            CHANNELS 3 Zrotation Yrotation Xrotation
                          }
                        }
                      }
                    }
                  }
                  JOINT LeftHandPinky1
                  {
                    OFFSET 2.8655 -0.310005 -1.600378
                    CHANNELS 3 Zrotation Yrotation Xrotation
                    JOINT LeftHandPinky2
                    {
                      OFFSET 5.087849 -1.331141 -1.77123
                      CHANNELS 3 Zrotation Yrotation Xrotation
                      JOINT LeftHandPinky3
                      {
                        OFFSET 3.070974 4e-06 0.0
                        CHANNELS 3 Zrotation Yrotation Xrotation
                        JOINT LeftHandPinky4
                        {
                          OFFSET 1.549672 0.0 1e-06
                          CHANNELS 3 Zrotation Yrotation Xrotation
                          JOINT LeftHandPinkyEnd
                          {
                            OFFSET 1.944893 -0.157802 0.057219
                            CHANNELS 3 Zrotation Yrotation Xrotation
                          }
                        }
                      }
                    }
                  }
                }
              }
            }
          }
          JOINT RightShoulder
          {
            OFFSET -1.380118 23.180309 5.214158
            CHANNELS 3 Zrotation Yrotation Xrotation
            JOINT RightArm
            {
              OFFSET -15.037196 1.2e-05 -5.545604
              CHANNELS 3 Zrotation Yrotation Xrotation
              JOINT RightForeArm
              {
                OFFSET -28.736639 2e-06 -0.002597
                CHANNELS 3 Zrotation Yrotation Xrotation
                JOINT RightHand
                {
                  OFFSET -27.133619 -0.0 0.002613
                  CHANNELS 3 Zrotation Yrotation Xrotation
                  JOINT RightHandThumb1
                  {
                    OFFSET -2.274032 -1.383988 3.163127
                    CHANNELS 3 Zrotation Yrotation Xrotation
                    JOINT RightHandThumb2
                    {
                      OFFSET -4.011429 -1.827466 1.640914
                      CHANNELS 3 Zrotation Yrotation Xrotation
                      JOINT RightHandThumb3
                      {
                        OFFSET -2.794935 -4e-06 -3e-06
                        CHANNELS 3 Zrotation Yrotation Xrotation
                        JOINT RightHandThumbEnd
                        {
                          OFFSET -3.183852 4e-06 1e-06
                          CHANNELS 3 Zrotation Yrotation Xrotation
                        }
                      }
                    }
                  }
                  JOINT RightHandIndex1
                  {
                    OFFSET -3.253266 -0.520057 2.282866
                    CHANNELS 3 Zrotation Yrotation Xrotation
                    JOINT RightHandIndex2
                    {
                      OFFSET -6.341917 0.012471 0.178266
                      CHANNELS 3 Zrotation Yrotation Xrotation
                      JOINT RightHandIndex3
                      {
                        OFFSET -3.654871 -8e-06 -0.0
                        CHANNELS 3 Zrotation Yrotation Xrotation
                        JOINT RightHandIndex4
                        {
                          OFFSET -2.327586 0.0 1e-06
                          CHANNELS 3 Zrotation Yrotation Xrotation
                          JOINT RightHandIndexEnd
                          {
                            OFFSET -2.76179 -0.180656 -0.113078
                            CHANNELS 3 Zrotation Yrotation Xrotation
                          }
                        }
                      }
                    }
                  }
                  JOINT RightHandMiddle1
                  {
                    OFFSET -3.168106 0.246593 1.00103
                    CHANNELS 3 Zrotation Yrotation Xrotation
                    JOINT RightHandMiddle2
                    {
                      OFFSET -6.180828 -0.258836 -1.000895
                      CHANNELS 3 Zrotation Yrotation Xrotation
                      JOINT RightHandMiddle3
                      {
                        OFFSET -4.348901 0.0 -0.0
                        CHANNELS 3 Zrotation Yrotation Xrotation
                        JOINT RightHandMiddle4
                        {
                          OFFSET -3.00024 -4e-06 -2e-06
                          CHANNELS 3 Zrotation Yrotation Xrotation
                          JOINT RightHandMiddleEnd
                          {
                            OFFSET -2.30252 -0.29437 -0.031706
                            CHANNELS 3 Zrotation Yrotation Xrotation
                          }
                        }
                      }
                    }
                  }
                  JOINT RightHandRing1
                  {
                    OFFSET -2.88569 -0.067952 -0.308858
                    CHANNELS 3 Zrotation Yrotation Xrotation
                    JOINT RightHandRing2
                    {
                      OFFSET -5.854198 -0.48613 -1.373731
                      CHANNELS 3 Zrotation Yrotation Xrotation
                      JOINT RightHandRing3
                      {
                        OFFSET -4.33881 -4e-06 -0.0
                        CHANNELS 3 Zrotation Yrotation Xrotation
                        JOINT RightHandRing4
                        {
                          OFFSET -2.654903 -4e-06 4e-06
                          CHANNELS 3 Zrotation Yrotation Xrotation
                          JOINT RightHandRingEnd
                          {
                            OFFSET -1.933568 0.077527 -5.2e-05
                            CHANNELS 3 Zrotation Yrotation Xrotation
                          }
                        }
                      }
                    }
                  }
                  JOINT RightHandPinky1
                  {
                    OFFSET -2.866425 -0.342796 -1.584145
                    CHANNELS 3 Zrotation Yrotation Xrotation
                    JOINT RightHandPinky2
                    {
                      OFFSET -5.091371 -1.332055 -1.772385
                      CHANNELS 3 Zrotation Yrotation Xrotation
                      JOINT RightHandPinky3
                      {
                        OFFSET -3.062664 -4e-06 1e-06
                        CHANNELS 3 Zrotation Yrotation Xrotation
                        JOINT RightHandPinky4
                        {
                          OFFSET -1.546529 4e-06 -2e-06
                          CHANNELS 3 Zrotation Yrotation Xrotation
                          JOINT RightHandPinkyEnd
                          {
                            OFFSET -1.945119 -0.157718 0.057211
                            CHANNELS 3 Zrotation Yrotation Xrotation
                          }
                        }
                      }
                    }
                  }
                }
              }
            }
          }
        }
      }
    }
    JOINT LeftLeg
    {
      OFFSET 10.043214 -8.434526 2.595655
      CHANNELS 3 Zrotation Yrotation Xrotation
      JOINT LeftShin
      {
        OFFSET -1e-06 -43.221752 -0.802913
        CHANNELS 3 Zrotation Yrotation Xrotation
        JOINT LeftFoot
        {
          OFFSET 1e-06 -42.155094 -3.481523
          CHANNELS 3 Zrotation Yrotation Xrotation
          JOINT LeftToeBase
          {
            OFFSET 0.0 -5.059472 13.231529
            CHANNELS 3 Zrotation Yrotation Xrotation
            JOINT LeftToeEnd
            {
              OFFSET -0.009607 -1.647619 6.513017
              CHANNELS 3 Zrotation Yrotation Xrotation
            }
          }
        }
      }
    }
    JOINT RightLeg
    {
      OFFSET -10.047278 -8.29526 2.620317
      CHANNELS 3 Zrotation Yrotation Xrotation
      JOINT RightShin
      {
        OFFSET 1e-06 -43.362206 -0.805556
        CHANNELS 3 Zrotation Yrotation Xrotation
        JOINT RightFoot
        {
          OFFSET 2e-06 -42.117393 -3.478398
          CHANNELS 3 Zrotation Yrotation Xrotation
          JOINT RightToeBase
          {
            OFFSET -0.0 -5.079609 13.284196
            CHANNELS 3 Zrotation Yrotation Xrotation
            JOINT RightToeEnd
            {
              OFFSET 0.009532 -1.634378 6.460591
              CHANNELS 3 Zrotation Yrotation Xrotation
            }
          }
        }
      }
    }
  }
}
MOTION
Frames: 4
Frame Time: 0.03333333333333333
1.460634 0.0 -2.208916 0.0 -0.532399 0.0 0.0 99.873642 0.0 0.538953 -0.012698 1.336799 1.031344 -0.339297 3.586009 -0.285331 -1.453498 -4.306375 -1.35752 -3.892126 13.369348 -0.852079 3.530385 12.16918 -0.323172 1.676272 -3.945557 -1.09277 0.86507 -17.331596 7.7e-05 -2.2e-05 6e-06 0.006877 -0.007605 0.001867 0.629026 -3.754051 -10.747142 -0.615503 3.74678 -10.740622 -20.902067 -2.808693 19.823177 -65.037422 11.21904 -20.342903 1.529369 -57.347927 -1.116991 34.090611 -13.675702 6.110707 -5.882113 9.861289 0.702588 -10.936881 -0.360574 7.15621 1e-06 8.774831 -1e-06 -16.55353 18.10116 5.924105 -1.844035 2.498504 -2.50728 -10.16361 4.678947 4.62111 -20.976044 -4e-06 -2e-06 -21.226305 2.451696 -3.594004 -0.0 -6e-06 0.0 -1.362681 2.2408 -0.746325 -21.334934 0.58491 3.008323 -13.821227 -3e-06 0.0 -23.88719 -0.249081 -0.839486 -60.79277 2.579209 -1.176396 -0.294025 1.679689 0.833257 -14.218224 0.093215 1.300579 -34.21209 -0.287567 0.967167 -20.033234 0.964535 1.212842 -0.0 1e-06 -1e-06 -3.440392 0.788233 0.501655 -15.928201 -3.167311 2.999708 -6.338832 -2e-06 1e-06 -18.123463 3.648182 -4.905677 -4e-06 -0.0 -2e-06 21.449093 2.797728 19.054243 60.101841 -0.445533 -6.01523 -1.302578 42.814907 -0.632261 -13.5475 -0.396425 0.805105 2.243542 -5.255038 -3.180159 14.282896 -0.826593 6.952505 -3e-06 -12.690605 -1e-06 16.413382 -17.791969 2.686737 1.665665 -1.955922 -2.8783 4.727801 -4.170588 4.993925 11.020531 3e-06 -2e-06 12.109056 -3.735715 -2.866785 -0.0 -0.0 0.0 1.291986 -1.92855 -1.49809 14.800132 0.567468 3.865608 14.242577 -1.341734 -6.660661 19.631973 0.143927 -0.648245 50.031227 -0.634575 -6.341046 0.353028 -1.511151 -0.03194 20.222801 3.684312 2.316631 18.787281 6e-06 -1e-06 10.751631 -0.479869 1.397906 0.0 0.0 0.0 3.273807 0.305947 -0.580111 21.48682 11.830378 2.266134 8.16293 3e-06 -1e-06 18.399088 -3.798982 -4.940577 3e-06 0.0 -2e-06 2.716107 4.348799 1.04068 0.006614 -0.097603 5.059595 -5.524361 0.037734 -7.195547 1.657926 -2.055546 -0.544736 -0.0 0.0 2e-06 -6.490579 -5.30225 1.922567 -0.007803 0.115533 2.836623 6.288366 -4.811676 -5.767034 -1.433015 0.852366 -0.567749 -0.0 0.0 -1e-06 
1.441762 0.0 -2.044709 0.0 -0.552752 0.0 0.0 99.859093 0.0 0.576201 -0.014814 1.457776 1.01973 -0.335566 3.476221 -0.292217 -1.468922 -4.311387 -1.316254 -3.957202 13.188303 -0.73849 3.416733 11.730472 -0.334037 1.620889 -3.940767 -1.203986 0.841267 -17.27486 7.7e-05 -2.2e-05 6e-06 0.006519 -0.016874 0.000621 0.63269 -3.764532 -10.746539 -0.620043 3.738923 -10.736569 -20.781628 -2.957366 19.737909 -64.841866 11.315947 -19.83326 1.460539 -57.019516 -1.014971 34.059319 -13.489106 5.89195 -5.882107 9.86129 0.702593 -10.936877 -0.360574 7.15621 2e-06 8.77483 -1e-06 -16.531908 18.115612 5.923968 -1.844033 2.498504 -2.507279 -10.163604 4.678948 4.621113 -20.97603 -0.0 4e-06 -21.226292 2.4517 -3.594001 0.0 -6e-06 -0.0 -1.362682 2.2408 -0.746324 -21.334921 0.584911 3.008327 -13.821218 -0.0 4e-06 -23.887178 -0.249076 -0.839482 -60.767136 2.56986 -1.184885 -0.294023 1.679689 0.833257 -14.218212 0.093216 1.300584 -34.212055 -0.28756 0.967175 -20.033218 0.96454 1.212846 0.0 0.0 -1e-06 -3.44039 0.788233 0.501657 -15.928192 -3.167309 2.999711 -6.338829 -2e-06 1e-06 -18.123453 3.648187 -4.905672 -4e-06 -2e-06 -3e-06 21.454121 2.869104 18.916948 59.939945 -0.470214 -5.900715 -1.342209 42.570423 -0.643104 -13.613878 -0.33199 0.741228 2.243541 -5.255036 -3.180156 14.282887 -0.826594 6.952502 -3e-06 -12.690602 0.0 16.430786 -17.810539 2.671133 1.665666 -1.955921 -2.878298 4.727798 -4.170587 4.993923 11.020524 2e-06 -1e-06 12.10905 -3.735716 -2.866783 0.0 -0.0 0.0 1.291985 -1.92855 -1.498089 14.800125 0.567468 3.865608 14.242569 -1.341737 -6.660655 19.631962 0.143925 -0.648243 50.039688 -0.62136 -6.336548 0.353029 -1.511151 -0.03194 20.222786 3.684308 2.31663 18.78727 4e-06 -0.0 10.751627 -0.479868 1.397906 0.0 0.0 0.0 3.273807 0.305947 -0.58011 21.486809 11.830377 2.266135 8.162926 1e-06 0.0 18.399076 -3.798986 -4.940574 3e-06 0.0 -1e-06 2.696521 4.444439 1.151878 0.005341 -0.089825 4.808252 -5.562093 0.016705 -7.188944 1.65727 -2.061831 -0.546795 0.0 -0.0 2e-06 -6.513727 -5.296051 1.837772 -0.004856 0.128668 2.970727 6.289006 -4.766676 -5.948931 -1.431953 0.846925 -0.57591 -0.0 -0.0 -1e-06 
1.42354 0.0 -1.873425 0.0 -0.562949 0.0 0.0 99.851761 0.0 0.617453 -0.017253 1.583697 0.987975 -0.344138 3.3488 -0.308363 -1.48869 -4.318981 -1.295235 -4.033653 12.970054 -0.633955 3.323731 11.186294 -0.336525 1.584193 -3.928845 -1.307225 0.846807 -17.24567 7.7e-05 -2.2e-05 6e-06 0.006122 -0.034696 -0.001601 0.638006 -3.782627 -10.742379 -0.626148 3.72157 -10.730947 -20.657135 -3.134917 19.625494 -64.541016 11.429079 -19.23513 1.447189 -56.707977 -0.954919 33.97533 -13.235903 5.68473 -5.88211 9.861286 0.702589 -10.936875 -0.360574 7.156205 0.0 8.774824 0.0 -16.491699 18.106506 5.927319 -1.844031 2.498505 -2.507279 -10.163606 4.678946 4.621109 -20.976036 -5e-06 -0.0 -21.226295 2.451695 -3.594003 0.0 -6e-06 1e-06 -1.362682 2.240798 -0.746323 -21.334921 0.58491 3.00832 -13.821221 -3e-06 -1e-06 -23.88718 -0.249082 -0.839486 -60.715343 2.555769 -1.155186 -0.294025 1.679688 0.833256 -14.218214 0.093216 1.300579 -34.212059 -0.287563 0.967167 -20.033218 0.964536 1.212841 0.0 0.0 1e-06 -3.440391 0.788233 0.501656 -15.928192 -3.167309 2.999704 -6.33883 1e-06 1e-06 -18.123453 3.648183 -4.905673 -4e-06 1e-06 -2e-06 21.465528 2.96828 18.748182 59.759075 -0.546082 -6.024284 -1.330177 42.226101 -0.621127 -13.707223 -0.352675 0.622643 2.243541 -5.255036 -3.180157 14.282894 -0.826594 6.952499 -3e-06 -12.690604 0.0 16.443193 -17.84314 2.659992 1.665666 -1.955922 -2.878298 4.727799 -4.170587 4.993922 11.020529 3e-06 -2e-06 12.109055 -3.735715 -2.866785 0.0 -0.0 0.0 1.291985 -1.928549 -1.498089 14.800132 0.567468 3.865604 14.242577 -1.341735 -6.660659 19.631973 0.143927 -0.648247 50.019127 -0.620788 -6.339508 0.353028 -1.51115 -0.03194 20.222795 3.684309 2.316627 18.787279 5e-06 -3e-06 10.751631 -0.479867 1.397905 1e-06 -0.0 -0.0 3.273808 0.305947 -0.580111 21.486818 11.830378 2.26613 8.162928 4e-06 -2e-06 18.399084 -3.798984 -4.940578 3e-06 -1e-06 -1e-06 2.671629 4.514328 1.311056 0.001751 -0.077443 4.44649 -5.596354 0.004105 -7.116004 1.656037 -2.064131 -0.560531 -0.0 0.0 2e-06 -6.544093 -5.33466 1.812547 -0.001806 0.142818 2.987392 6.292167 -4.694229 -6.062114 -1.429858 0.839945 -0.59972 -0.0 -0.0 -1e-06 
1.399539 0.0 -1.689513 0.0 -0.57115 0.0 0.0 99.860687 0.0 0.666755 -0.020204 1.717056 0.932198 -0.369164 3.206577 -0.33574 -1.504905 -4.329371 -1.302446 -4.109439 12.706743 -0.553522 3.271683 10.547037 -0.32145 1.575008 -3.916145 -1.394304 0.899174 -17.1964 7.7e-05 -2.2e-05 6e-06 0.005873 -0.055583 -0.007195 0.64534 -3.804058 -10.743922 -0.63387 3.701387 -10.733612 -20.535301 -3.341239 19.496115 -64.103691 11.53983 -18.62756 1.496522 -56.427696 -0.939603 33.811527 -12.902872 5.484126 -5.88211 9.861287 0.70259 -10.936875 -0.360575 7.156205 0.0 8.774826 -2e-06 -16.435127 18.074232 5.926304 -1.844031 2.498505 -2.507277 -10.163602 4.678948 4.621108 -20.976027 -2e-06 1e-06 -21.226294 2.451699 -3.594002 0.0 -6e-06 1e-06 -1.362682 2.240798 -0.746323 -21.334921 0.584911 3.008322 -13.821217 -2e-06 1e-06 -23.887177 -0.249079 -0.839486 -60.61562 2.54255 -1.111181 -0.294026 1.679687 0.833257 -14.218212 0.093216 1.300579 -34.212051 -0.287562 0.96717 -20.033215 0.964538 1.212843 1e-06 0.0 1e-06 -3.44039 0.788233 0.501655 -15.928185 -3.167311 2.999706 -6.338827 -2e-06 1e-06 -18.123449 3.648185 -4.905671 -4e-06 -1e-06 -3e-06 21.491068 3.082337 18.550089 59.56337 -0.699843 -6.364719 -1.240858 41.829407 -0.540472 -13.887503 -0.409879 0.403247 2.243541 -5.255035 -3.180155 14.282884 -0.826595 6.952496 -2e-06 -12.6906 0.0 16.447958 -17.872196 2.641863 1.665666 -1.95592 -2.878297 4.727797 -4.170586 4.99392 11.02052 3e-06 -2e-06 12.109048 -3.735715 -2.866784 -0.0 -0.0 0.0 1.291984 -1.928548 -1.498088 14.800122 0.567467 3.865602 14.242566 -1.341736 -6.660655 19.631956 0.143927 -0.648246 49.956398 -0.625886 -6.351996 0.353028 -1.51115 -0.03194 20.222782 3.684307 2.316626 18.787264 4e-06 -3e-06 10.75162 -0.479868 1.397904 1e-06 -0.0 0.0 3.273804 0.305947 -0.580111 21.486801 11.83037 2.266128 8.162922 3e-06 -2e-06 18.399075 -3.798982 -4.940575 3e-06 -1e-06 -1e-06 2.639533 4.547611 1.520078 -0.003789 -0.068178 3.973143 -5.642116 0.025999 -6.932181 1.655226 -2.064327 -0.596851 0.0 0.0 2e-06 -6.58393 -5.387335 1.899112 -0.000365 0.157396 2.773235 6.284898 -4.626677 -6.034733 -1.427532 0.826145 -0.647018 -0.0 -0.0 -1e-06 
